<svg width="439" height="290" viewBox="0 0 439 290" fill="none" xmlns="http://www.w3.org/2000/svg">
<path d="M439 0L439 289H0L439 0Z" fill="white"/>
<g clip-path="url(#clip0_187_7)">
<path d="M375.03 198.54H46V289.22H375.03V198.54Z" fill="#262262"/>
<path d="M46 243.88H375.03" stroke="#231F20" stroke-miterlimit="10"/>
<path d="M157.33 198.54V289.22" stroke="#231F20" stroke-miterlimit="10"/>
<path d="M266.18 198.54V289.22" stroke="#231F20" stroke-miterlimit="10"/>
<path d="M375.03 198.54V289.22" stroke="#231F20" stroke-miterlimit="10"/>
<path d="M220.08 200.52H200.96V204.48H220.08V200.52Z" fill="white"/>
<path d="M221.32 247.02H202.2V250.98H221.32V247.02Z" fill="white"/>
<path d="M330.17 200.52H311.05V204.48H330.17V200.52Z" fill="white"/>
<path d="M330.17 247.02H311.05V250.98H330.17V247.02Z" fill="white"/>
<path d="M111.93 200.52H92.8096V204.48H111.93V200.52Z" fill="white"/>
<path d="M111.93 247H92.8096V250.96H111.93V247Z" fill="white"/>
<path opacity="0.7" d="M379.22 192.54H46V199.6H379.22V192.54Z" fill="#231F20"/>
<path d="M379.22 191.48H46V198.54H379.22V191.48Z" fill="white"/>
<path d="M333.91 169.16H334.61C335.81 169.16 336.78 170.13 336.78 171.33V191.48H333.91V169.16Z" fill="#231F20"/>
<path d="M323.56 171.45V170.89C323.56 169.93 324.34 169.16 325.29 169.16H333.92V171.45H323.56Z" fill="#231F20"/>
<path d="M326.07 175.59H323.9C323.71 175.59 323.55 175.43 323.55 175.24V171.45H326.42V175.24C326.42 175.43 326.26 175.59 326.07 175.59Z" fill="#231F20"/>
<path d="M66.5103 188.81H65.0703V191.44H66.5103V188.81Z" fill="#231F20"/>
<path d="M72.91 188.81H66.5V189.98H72.91V188.81Z" fill="#231F20"/>
<path d="M82.8803 191.4H84.3203V188.77H82.8803V191.4Z" fill="#231F20"/>
<path d="M73.9702 191.43H75.4102V188.8H73.9702V191.43Z" fill="#231F20"/>
<path d="M76.4806 189.95H82.8906V188.78H76.4806V189.95Z" fill="#231F20"/>
<path d="M94.4107 188.83H92.9707V191.46H94.4107V188.83Z" fill="#231F20"/>
<path d="M100.82 188.83H94.4102V190H100.82V188.83Z" fill="#231F20"/>
<path d="M110.781 191.42H112.221V188.79H110.781V191.42Z" fill="#231F20"/>
<path d="M101.88 191.45H103.32V188.82H101.88V191.45Z" fill="#231F20"/>
<path d="M104.37 189.96H110.78V188.79H104.37V189.96Z" fill="#231F20"/>
<path d="M119.61 188.86H118.17V191.49H119.61V188.86Z" fill="#231F20"/>
<path d="M126.011 188.86H119.601V190.03H126.011V188.86Z" fill="#231F20"/>
<path d="M135.98 191.45H137.42V188.82H135.98V191.45Z" fill="#231F20"/>
<path d="M127.071 191.48H128.511V188.85H127.071V191.48Z" fill="#231F20"/>
<path d="M129.57 190H135.98V188.83H129.57V190Z" fill="#231F20"/>
<g opacity="0.7">
<path d="M103.46 143.19H54.1699L80.4599 108.25H103.46V143.19Z" fill="#231F20"/>
<path d="M103.17 143.2H152.46L126.17 108.26H103.17V143.2Z" fill="#231F20"/>
</g>
<path opacity="0.7" d="M126.24 73H80.6904V108.26H126.24V73Z" fill="#231F20"/>
<path d="M236.45 154.7H180.88V159.63H236.45V154.7Z" fill="#C0C0C0"/>
<path d="M335.331 186.76L338.379 183.712C338.527 183.563 338.761 183.57 338.902 183.712L339.362 184.172C339.51 184.32 339.503 184.553 339.362 184.695L336.314 187.742L335.331 186.76Z" fill="#231F20"/>
<path d="M288.351 165.48H257.471V166.6H288.351V165.48Z" fill="#C0C0C0"/>
<path d="M258.42 166.6V188.39L274.73 184.41C275.03 184.34 275.34 184.52 275.42 184.83L275.44 184.93C275.51 185.23 275.33 185.54 275.02 185.62L258.41 189.68V190.6C258.41 191.1 258.82 191.51 259.32 191.51H286.48C286.98 191.51 287.39 191.1 287.39 190.6V166.62H258.41L258.42 166.6Z" fill="#C0C0C0"/>
<path d="M264.25 166.6L269.45 161.21C271.44 159.15 274.66 159.15 276.65 161.21L281.58 166.33" stroke="#C0C0C0" stroke-width="0.75" stroke-miterlimit="10"/>
<path opacity="0.7" d="M287.401 166.6H258.421V166.81H287.401V166.6Z" fill="#231F20"/>
<path d="M224.94 188.76H255.4V190.88C255.4 191.21 255.13 191.48 254.8 191.48H225.54C225.21 191.48 224.94 191.21 224.94 190.88V188.76Z" fill="#C0C0C0"/>
<path d="M258.421 189.66L254.851 190.53L254.551 189.33L258.421 188.39V189.66Z" fill="#C0C0C0"/>
<path d="M62.8398 168.19H86.5398V186.11C86.5398 187.43 85.4698 188.5 84.1498 188.5H65.2398C63.9198 188.5 62.8498 187.43 62.8498 186.11V168.19H62.8398Z" fill="#C0C0C0"/>
<path d="M285.67 170.33H291.28" stroke="#C0C0C0" stroke-width="0.75" stroke-linecap="round" stroke-linejoin="round"/>
<path d="M255.62 170.33H261.22" stroke="#C0C0C0" stroke-width="0.75" stroke-linecap="round" stroke-linejoin="round"/>
<path d="M83.7598 170.29H89.3298" stroke="#C0C0C0" stroke-width="0.75" stroke-linecap="round" stroke-linejoin="round"/>
<path d="M60.0596 170.29H65.6296" stroke="#C0C0C0" stroke-width="0.75" stroke-linecap="round" stroke-linejoin="round"/>
<path d="M191.14 162.16C190.99 161.99 190.81 161.94 190.63 161.96C190.27 161.99 189.9 162.04 189.54 162.08C189.46 162.09 189.41 162.08 189.35 162.02C189.13 161.78 188.82 161.72 188.5 161.69C188.48 161.69 188.47 161.69 188.45 161.69C188.06 161.69 188.06 161.69 188.07 161.3C188.1 159.71 188.12 158.13 188.16 156.54C188.21 154.89 188.31 153.25 188.59 151.62C188.8 150.42 189.09 149.24 189.61 148.12C189.73 147.86 189.87 147.6 190.01 147.34C190.02 147.34 190.04 147.34 190.05 147.34C190.13 147.66 190.22 147.97 190.29 148.29C190.53 149.33 190.68 150.37 190.75 151.43C190.82 152.42 190.88 153.42 190.92 154.41C190.97 155.83 191 157.25 191.04 158.67C191.07 159.81 191.1 160.96 191.13 162.14L191.14 162.16Z" fill="#58595B"/>
<path d="M191.52 162.16C191.37 161.99 191.19 161.94 191.01 161.96C190.65 161.99 190.28 162.04 189.92 162.08C189.84 162.09 189.79 162.08 189.73 162.02C189.51 161.78 189.2 161.72 188.88 161.69C188.86 161.69 188.85 161.69 188.83 161.69C188.44 161.69 188.44 161.69 188.45 161.3C188.48 159.71 188.5 158.13 188.54 156.54C188.59 154.89 188.69 153.25 188.97 151.62C189.18 150.42 189.47 149.24 189.99 148.12C190.11 147.86 190.25 147.6 190.39 147.34C190.4 147.34 190.42 147.34 190.43 147.34C190.51 147.66 190.6 147.97 190.67 148.29C190.91 149.33 191.06 150.37 191.13 151.43C191.2 152.42 191.26 153.42 191.3 154.41C191.35 155.83 191.38 157.25 191.42 158.67C191.45 159.81 191.48 160.96 191.51 162.14L191.52 162.16Z" fill="#BCBEC0"/>
<path d="M189.78 162.2C190.26 162.1 190.73 161.98 191.21 162.08C191.44 162.13 191.52 162.23 191.53 162.47C191.57 163.83 191.6 165.2 191.64 166.56C191.66 167.56 191.69 168.56 191.7 169.56C191.7 169.9 191.63 170.22 191.39 170.48C191.17 170.72 190.89 170.79 190.59 170.72C190.1 170.61 189.7 170.34 189.42 169.92C189.25 169.67 189.27 169.4 189.4 169.12C189.53 168.83 189.67 168.54 189.74 168.23C189.79 167.99 189.76 167.73 189.74 167.47C189.65 166.13 189.69 164.8 189.91 163.47C189.98 163.04 190.01 162.61 189.78 162.18V162.2ZM190.9 163.8C191.01 163.69 191.01 163.55 190.9 163.45C190.8 163.36 190.65 163.35 190.55 163.45C190.45 163.55 190.45 163.71 190.55 163.81C190.65 163.91 190.79 163.91 190.89 163.81L190.9 163.8ZM190.89 165.59C190.78 165.48 190.63 165.48 190.53 165.59C190.44 165.69 190.43 165.85 190.53 165.94C190.63 166.04 190.78 166.04 190.89 165.94C190.99 165.84 191 165.7 190.89 165.6V165.59ZM190.59 167.41C190.48 167.52 190.48 167.65 190.58 167.75C190.68 167.86 190.84 167.86 190.94 167.76C191.04 167.66 191.03 167.49 190.94 167.4C190.84 167.31 190.7 167.31 190.6 167.41H190.59ZM190.34 169.57C190.44 169.65 190.54 169.65 190.65 169.59C190.68 169.57 190.71 169.53 190.71 169.49C190.71 169.47 190.66 169.44 190.63 169.43C190.51 169.4 190.41 169.45 190.35 169.57H190.34Z" fill="black"/>
<path d="M190.9 163.8C190.79 163.9 190.66 163.91 190.56 163.8C190.46 163.7 190.46 163.54 190.56 163.44C190.66 163.35 190.81 163.35 190.91 163.44C191.01 163.54 191.01 163.69 190.91 163.79L190.9 163.8Z" fill="white"/>
<path d="M190.89 165.59C190.99 165.69 190.99 165.83 190.89 165.93C190.78 166.04 190.63 166.04 190.53 165.93C190.44 165.83 190.44 165.67 190.53 165.58C190.63 165.48 190.78 165.48 190.89 165.58V165.59Z" fill="white"/>
<path d="M190.59 167.41C190.69 167.31 190.84 167.3 190.93 167.4C191.03 167.49 191.03 167.67 190.93 167.76C190.83 167.86 190.67 167.85 190.57 167.75C190.47 167.65 190.48 167.51 190.58 167.41H190.59Z" fill="white"/>
<path d="M190.34 169.57C190.4 169.45 190.5 169.41 190.62 169.43C190.65 169.43 190.7 169.47 190.7 169.49C190.7 169.52 190.67 169.57 190.64 169.59C190.54 169.65 190.44 169.65 190.33 169.57H190.34Z" fill="#231F20"/>
<path d="M211.74 162.16C211.59 161.99 211.41 161.94 211.23 161.96C210.87 161.99 210.5 162.04 210.14 162.08C210.06 162.09 210.01 162.08 209.95 162.02C209.73 161.78 209.42 161.72 209.1 161.69C209.08 161.69 209.07 161.69 209.05 161.69C208.66 161.69 208.66 161.69 208.67 161.3C208.7 159.71 208.72 158.13 208.76 156.54C208.81 154.89 208.91 153.25 209.19 151.62C209.4 150.42 209.69 149.24 210.21 148.12C210.33 147.86 210.47 147.6 210.61 147.34C210.62 147.34 210.64 147.34 210.65 147.34C210.73 147.66 210.82 147.97 210.89 148.29C211.13 149.33 211.28 150.37 211.35 151.43C211.42 152.42 211.48 153.42 211.52 154.41C211.57 155.83 211.6 157.25 211.64 158.67C211.67 159.81 211.7 160.96 211.73 162.14L211.74 162.16Z" fill="#58595B"/>
<path d="M212.11 162.16C211.96 161.99 211.78 161.94 211.6 161.96C211.24 161.99 210.87 162.04 210.51 162.08C210.43 162.09 210.38 162.08 210.32 162.02C210.1 161.78 209.79 161.72 209.47 161.69C209.45 161.69 209.44 161.69 209.42 161.69C209.03 161.69 209.03 161.69 209.04 161.3C209.07 159.71 209.09 158.13 209.13 156.54C209.18 154.89 209.28 153.25 209.56 151.62C209.77 150.42 210.06 149.24 210.58 148.12C210.7 147.86 210.84 147.6 210.98 147.34C210.99 147.34 211.01 147.34 211.02 147.34C211.1 147.66 211.19 147.97 211.26 148.29C211.5 149.33 211.65 150.37 211.72 151.43C211.79 152.42 211.85 153.42 211.89 154.41C211.94 155.83 211.97 157.25 212.01 158.67C212.04 159.81 212.07 160.96 212.1 162.14L212.11 162.16Z" fill="#BCBEC0"/>
<path d="M210.369 162.2C210.849 162.1 211.319 161.98 211.799 162.08C212.029 162.13 212.109 162.23 212.119 162.47C212.159 163.83 212.189 165.2 212.229 166.56C212.249 167.56 212.279 168.56 212.289 169.56C212.289 169.9 212.219 170.22 211.979 170.48C211.759 170.72 211.479 170.79 211.179 170.72C210.689 170.61 210.289 170.34 210.009 169.92C209.839 169.67 209.859 169.4 209.989 169.12C210.119 168.83 210.259 168.54 210.329 168.23C210.379 167.99 210.349 167.73 210.329 167.47C210.239 166.13 210.279 164.8 210.499 163.47C210.569 163.04 210.599 162.61 210.369 162.18V162.2ZM211.489 163.8C211.599 163.69 211.599 163.55 211.489 163.45C211.389 163.36 211.239 163.35 211.139 163.45C211.039 163.55 211.039 163.71 211.139 163.81C211.239 163.91 211.379 163.91 211.479 163.81L211.489 163.8ZM211.479 165.59C211.369 165.48 211.219 165.48 211.119 165.59C211.029 165.69 211.019 165.85 211.119 165.94C211.219 166.04 211.369 166.04 211.479 165.94C211.579 165.84 211.589 165.7 211.479 165.6V165.59ZM211.189 167.41C211.079 167.52 211.079 167.65 211.179 167.75C211.279 167.86 211.439 167.86 211.539 167.76C211.639 167.66 211.629 167.49 211.539 167.4C211.439 167.31 211.299 167.31 211.199 167.41H211.189ZM210.929 169.57C211.029 169.65 211.129 169.65 211.239 169.59C211.269 169.57 211.299 169.53 211.299 169.49C211.299 169.47 211.249 169.44 211.219 169.43C211.099 169.4 210.999 169.45 210.939 169.57H210.929Z" fill="black"/>
<path d="M211.489 163.8C211.379 163.9 211.249 163.91 211.149 163.8C211.049 163.7 211.049 163.54 211.149 163.44C211.249 163.35 211.399 163.35 211.499 163.44C211.599 163.54 211.599 163.69 211.499 163.79L211.489 163.8Z" fill="white"/>
<path d="M211.479 165.59C211.579 165.69 211.579 165.83 211.479 165.93C211.369 166.04 211.219 166.04 211.119 165.93C211.029 165.83 211.029 165.67 211.119 165.58C211.219 165.48 211.369 165.48 211.479 165.58V165.59Z" fill="white"/>
<path d="M211.19 167.41C211.29 167.31 211.44 167.3 211.53 167.4C211.63 167.49 211.63 167.67 211.53 167.76C211.43 167.86 211.27 167.85 211.17 167.75C211.07 167.65 211.08 167.51 211.18 167.41H211.19Z" fill="white"/>
<path d="M210.93 169.57C210.99 169.45 211.09 169.41 211.21 169.43C211.24 169.43 211.29 169.47 211.29 169.49C211.29 169.52 211.26 169.57 211.23 169.59C211.13 169.65 211.03 169.65 210.92 169.57H210.93Z" fill="#231F20"/>
<path d="M222.77 160.78C222.65 160.65 222.51 160.61 222.36 160.62C222.07 160.64 221.78 160.68 221.5 160.72C221.44 160.72 221.4 160.72 221.35 160.67C221.17 160.48 220.93 160.43 220.68 160.41C220.67 160.41 220.66 160.41 220.64 160.41C220.33 160.41 220.33 160.41 220.34 160.11C220.36 158.86 220.38 157.6 220.41 156.35C220.45 155.05 220.53 153.75 220.75 152.47C220.92 151.52 221.14 150.59 221.56 149.71C221.66 149.5 221.77 149.3 221.87 149.1C221.88 149.1 221.89 149.1 221.9 149.1C221.96 149.35 222.03 149.6 222.09 149.85C222.28 150.67 222.4 151.5 222.45 152.33C222.5 153.11 222.56 153.9 222.59 154.68C222.63 155.8 222.66 156.92 222.69 158.05C222.71 158.95 222.74 159.86 222.76 160.79L222.77 160.78Z" fill="#58595B"/>
<path d="M223.07 160.78C222.95 160.65 222.81 160.61 222.66 160.62C222.37 160.64 222.08 160.68 221.8 160.72C221.74 160.72 221.7 160.72 221.65 160.67C221.47 160.48 221.23 160.43 220.98 160.41C220.97 160.41 220.96 160.41 220.94 160.41C220.63 160.41 220.63 160.41 220.64 160.11C220.66 158.86 220.68 157.6 220.71 156.35C220.75 155.05 220.83 153.75 221.05 152.47C221.22 151.52 221.44 150.59 221.86 149.71C221.96 149.5 222.07 149.3 222.17 149.1C222.18 149.1 222.19 149.1 222.2 149.1C222.26 149.35 222.33 149.6 222.39 149.85C222.58 150.67 222.7 151.5 222.75 152.33C222.8 153.11 222.86 153.9 222.89 154.68C222.93 155.8 222.96 156.92 222.99 158.05C223.01 158.95 223.04 159.86 223.06 160.79L223.07 160.78Z" fill="#BCBEC0"/>
<path d="M221.69 160.8C222.07 160.72 222.44 160.63 222.82 160.71C223 160.75 223.07 160.83 223.07 161.02C223.1 162.1 223.13 163.17 223.15 164.25C223.17 165.04 223.19 165.83 223.2 166.62C223.2 166.89 223.15 167.14 222.96 167.34C222.79 167.53 222.57 167.59 222.33 167.53C221.94 167.44 221.63 167.23 221.4 166.9C221.27 166.7 221.28 166.49 221.38 166.27C221.48 166.04 221.6 165.81 221.65 165.57C221.69 165.38 221.66 165.17 221.65 164.97C221.58 163.91 221.61 162.86 221.78 161.81C221.84 161.47 221.86 161.13 221.68 160.79L221.69 160.8ZM222.58 162.07C222.67 161.99 222.67 161.87 222.58 161.79C222.5 161.72 222.38 161.71 222.3 161.79C222.22 161.87 222.22 162 222.3 162.08C222.38 162.16 222.49 162.16 222.57 162.08L222.58 162.07ZM222.57 163.48C222.49 163.39 222.37 163.39 222.29 163.48C222.22 163.56 222.21 163.68 222.29 163.76C222.37 163.84 222.49 163.84 222.57 163.76C222.65 163.68 222.65 163.57 222.57 163.49V163.48ZM222.33 164.92C222.25 165 222.24 165.11 222.32 165.19C222.4 165.27 222.53 165.28 222.6 165.19C222.68 165.11 222.67 164.98 222.6 164.9C222.52 164.83 222.41 164.83 222.33 164.9V164.92ZM222.13 166.63C222.21 166.69 222.29 166.69 222.37 166.64C222.39 166.63 222.41 166.59 222.42 166.56C222.42 166.55 222.38 166.52 222.36 166.51C222.26 166.49 222.19 166.52 222.14 166.62L222.13 166.63Z" fill="black"/>
<path d="M222.58 162.07C222.5 162.15 222.39 162.15 222.31 162.07C222.23 161.99 222.23 161.86 222.31 161.78C222.39 161.71 222.51 161.71 222.59 161.78C222.67 161.86 222.67 161.98 222.59 162.06L222.58 162.07Z" fill="white"/>
<path d="M222.57 163.48C222.65 163.56 222.65 163.67 222.57 163.75C222.49 163.83 222.36 163.83 222.29 163.75C222.22 163.67 222.22 163.55 222.29 163.47C222.37 163.39 222.49 163.39 222.57 163.47V163.48Z" fill="white"/>
<path d="M222.33 164.92C222.41 164.84 222.53 164.84 222.6 164.92C222.68 164.99 222.68 165.13 222.6 165.21C222.52 165.29 222.4 165.28 222.32 165.21C222.24 165.13 222.25 165.02 222.33 164.94V164.92Z" fill="white"/>
<path d="M222.13 166.63C222.18 166.54 222.26 166.5 222.35 166.52C222.37 166.52 222.41 166.55 222.41 166.57C222.41 166.6 222.39 166.63 222.36 166.65C222.28 166.69 222.2 166.7 222.12 166.64L222.13 166.63Z" fill="#231F20"/>
<path d="M197.61 164C197.39 163.77 197.14 163.69 196.89 163.71C196.38 163.75 195.87 163.82 195.36 163.88C195.25 163.89 195.18 163.89 195.09 163.79C194.78 163.45 194.34 163.37 193.9 163.33C193.88 163.33 193.86 163.33 193.83 163.33C193.29 163.33 193.28 163.33 193.29 162.79C193.33 160.56 193.35 158.34 193.42 156.11C193.49 153.8 193.63 151.49 194.03 149.21C194.33 147.52 194.73 145.86 195.46 144.3C195.63 143.93 195.83 143.57 196.02 143.21C196.04 143.21 196.06 143.21 196.08 143.21C196.19 143.66 196.32 144.1 196.42 144.55C196.75 146 196.97 147.48 197.07 148.96C197.16 150.35 197.26 151.75 197.31 153.14C197.39 155.13 197.43 157.13 197.48 159.12C197.52 160.73 197.57 162.33 197.61 163.99V164Z" fill="#58595B"/>
<path d="M198.14 164C197.92 163.77 197.67 163.69 197.42 163.71C196.91 163.75 196.4 163.82 195.89 163.88C195.78 163.89 195.71 163.89 195.62 163.79C195.31 163.45 194.87 163.37 194.43 163.33C194.41 163.33 194.39 163.33 194.36 163.33C193.82 163.33 193.81 163.33 193.82 162.79C193.86 160.56 193.88 158.34 193.95 156.11C194.02 153.8 194.16 151.49 194.56 149.21C194.86 147.52 195.26 145.86 195.99 144.3C196.16 143.93 196.36 143.57 196.55 143.21C196.57 143.21 196.59 143.21 196.61 143.21C196.72 143.66 196.85 144.1 196.95 144.55C197.28 146 197.5 147.48 197.6 148.96C197.69 150.35 197.79 151.75 197.84 153.14C197.92 155.13 197.96 157.13 198.01 159.12C198.05 160.73 198.1 162.33 198.14 163.99V164Z" fill="#BCBEC0"/>
<path d="M195.69 164.05C196.37 163.92 197.02 163.74 197.7 163.89C198.03 163.96 198.14 164.1 198.15 164.43C198.2 166.34 198.25 168.26 198.3 170.17C198.33 171.57 198.37 172.98 198.39 174.38C198.39 174.85 198.3 175.3 197.96 175.67C197.65 176.01 197.26 176.11 196.83 176.01C196.14 175.86 195.58 175.48 195.18 174.89C194.94 174.54 194.97 174.16 195.15 173.77C195.34 173.37 195.53 172.95 195.63 172.53C195.71 172.19 195.66 171.82 195.63 171.47C195.51 169.59 195.55 167.72 195.86 165.86C195.96 165.26 196 164.65 195.68 164.05H195.69ZM197.26 166.29C197.41 166.14 197.42 165.94 197.26 165.79C197.12 165.66 196.9 165.66 196.77 165.79C196.63 165.93 196.63 166.16 196.77 166.3C196.91 166.44 197.11 166.44 197.25 166.3L197.26 166.29ZM197.25 168.8C197.1 168.65 196.89 168.64 196.75 168.79C196.62 168.92 196.61 169.15 196.75 169.29C196.89 169.44 197.1 169.44 197.25 169.29C197.4 169.15 197.4 168.95 197.26 168.81L197.25 168.8ZM196.83 171.36C196.68 171.51 196.67 171.69 196.81 171.84C196.95 171.99 197.18 172 197.32 171.86C197.45 171.73 197.45 171.48 197.32 171.35C197.18 171.22 196.98 171.22 196.84 171.37L196.83 171.36ZM196.48 174.4C196.62 174.51 196.77 174.51 196.91 174.43C196.95 174.41 196.99 174.34 196.99 174.29C196.99 174.26 196.92 174.22 196.88 174.21C196.71 174.17 196.57 174.24 196.48 174.4Z" fill="black"/>
<path d="M197.26 166.29C197.11 166.43 196.92 166.44 196.78 166.29C196.64 166.15 196.64 165.92 196.78 165.78C196.91 165.65 197.14 165.65 197.27 165.78C197.42 165.92 197.41 166.13 197.27 166.28L197.26 166.29Z" fill="white"/>
<path d="M197.25 168.8C197.39 168.94 197.39 169.14 197.24 169.28C197.09 169.43 196.87 169.43 196.74 169.28C196.61 169.14 196.62 168.92 196.74 168.78C196.88 168.64 197.1 168.64 197.24 168.79L197.25 168.8Z" fill="white"/>
<path d="M196.83 171.36C196.97 171.22 197.18 171.21 197.31 171.34C197.45 171.47 197.45 171.72 197.31 171.85C197.17 171.99 196.95 171.98 196.8 171.83C196.66 171.68 196.67 171.5 196.82 171.35L196.83 171.36Z" fill="white"/>
<path d="M196.48 174.4C196.57 174.23 196.7 174.17 196.88 174.21C196.92 174.21 196.99 174.27 196.99 174.29C196.99 174.34 196.95 174.4 196.91 174.43C196.77 174.51 196.62 174.51 196.48 174.4Z" fill="#231F20"/>
</g>
<defs>
<clipPath id="clip0_187_7">
<rect width="333.22" height="216.22" fill="white" transform="translate(46 73)"/>
</clipPath>
</defs>
</svg>
