<svg width="439" height="290" viewBox="0 0 439 290" fill="none" xmlns="http://www.w3.org/2000/svg">
<path d="M439 0L439 144.5L439 289H0L439 0Z" fill="white"/>
<g clip-path="url(#clip0_328_2)">
<path d="M257.382 193.765C253.69 182.383 250.558 171.901 252.405 168.313C253.576 166.029 255.671 164.866 258.625 164.866C263.709 164.866 269.866 168.348 271.002 169.022L270.952 168.313C270.299 167.944 263.496 164.157 257.993 164.157C254.982 164.157 252.887 165.278 251.751 167.497C250.246 170.426 251.822 179.114 256.431 193.325L257.389 193.772L257.382 193.765Z" fill="#B3B3B3"/>
<path d="M257.993 164.257C255.032 164.257 252.966 165.356 251.851 167.533C250.367 170.434 251.936 179.078 256.523 193.226L257.205 193.546C253.541 182.234 250.459 171.852 252.312 168.249C253.505 165.923 255.629 164.746 258.632 164.746C263.518 164.746 269.376 167.937 270.881 168.81L270.846 168.363C269.958 167.859 263.347 164.25 257.993 164.25M257.993 164.037C263.851 164.037 271.059 168.235 271.059 168.235L271.13 169.214C271.13 169.214 264.256 164.966 258.625 164.966C256.083 164.966 253.789 165.831 252.497 168.349C250.566 172.121 254.4 184.213 257.56 193.964L256.332 193.382C253.172 183.631 249.713 171.2 251.645 167.427C252.937 164.902 255.323 164.03 257.986 164.03L257.993 164.037Z" fill="black"/>
<path d="M176.858 134.244C174.827 132.968 170.666 131.819 168.223 131.727C165.127 131.613 159.986 133.642 158.509 133.287C157.679 133.089 155.875 131.046 154.064 130.301C149.534 128.443 142.909 127.777 138.421 129.961C136.056 131.11 126.917 141.833 128.316 143.272C131.27 143.024 134.416 141.592 137.363 142.861C134.821 145.286 128.401 145.726 126.285 148.236C123.424 151.633 126.065 162.491 127.556 166.618C131.703 178.071 132.065 167.937 135.722 163.406C136.809 162.058 138.79 160.101 140.643 160.108C138.925 163.874 134.26 171.079 134.103 174.979C133.969 178.511 137.995 180.639 137.363 184.34C140.544 185.305 142.127 192.191 143.136 195.013C145.131 194.049 145.479 191.985 147.46 190.723C149.725 189.269 151.771 189.794 152.999 189.269C162.827 185.078 158.602 173.582 158.765 165.455C160.498 165.2 160.1 165.356 160.604 166.491C162.855 171.526 163.97 178.844 163.707 184.34C166.107 182.766 167.741 179.894 171.106 180.234C171.504 178.561 174.06 177.547 174.401 176.951C178.747 169.306 178.094 162.817 172.733 156.03C171.703 154.725 163.856 147.995 165.348 146.57C173.002 146.386 176.468 157.661 180.558 160.619C181.772 161.498 182.439 160.484 182.624 160.526C183.945 151.86 185.521 139.698 176.865 134.244H176.858Z" fill="#6CB453"/>
<path d="M185.088 165.455C182.404 166.299 178.725 173.859 177.689 176.554L180.969 176.958C181.445 177.377 177.554 186.518 179.322 188.454C179.606 188.319 180.437 188.475 180.913 188.496C181.282 188.773 182.184 191.986 182.617 192.56C183.05 193.134 185.691 196.503 185.912 196.666C186.068 196.78 188.915 198.184 189.206 198.311C189.739 198.545 196.343 200.226 196.613 199.957C197.266 195.95 195.221 192.368 196.151 188.411C197.188 183.986 200.731 184.851 200.731 186.404V200.368C200.731 202.006 210.573 204.793 213.002 206.204C214.415 207.027 216.893 209.183 217.965 210.459C218.761 211.41 221.501 217.721 222.95 216.381C225.194 209.14 228.681 201.063 227.523 193.347C226.508 186.582 219.066 183.397 213.896 179.837C213.953 176.873 224.186 180.788 225.641 181.866C227.431 183.192 227.054 186.468 229.54 185.993C230.179 179.703 227.63 169.093 221.317 166.285C218.853 165.193 215.728 165.47 213.094 165.462C211.823 164.264 218.221 159.569 211.035 159.697C203.529 159.832 199.936 167.562 198.58 167.817C197.415 168.044 190.03 163.916 185.109 165.462L185.088 165.455ZM218.839 200.765C218.249 199.609 219.357 198.574 219.648 199.134C220.238 200.29 219.13 201.325 218.839 200.765ZM220.486 208.155L219.662 201.595C221.04 201.942 222.226 207.843 220.486 208.155ZM221.31 210.623C220.72 209.467 221.828 208.431 222.119 208.991C222.709 210.147 221.601 211.183 221.31 210.623Z" fill="#6CB453"/>
<path d="M176.858 134.244C185.521 139.698 183.938 151.86 182.617 160.526C184.406 160.966 185.152 163.796 185.088 165.455C190.009 163.909 197.394 168.029 198.559 167.81C199.915 167.547 203.508 159.824 211.014 159.69C218.2 159.562 211.802 164.264 213.073 165.455C215.707 165.469 218.832 165.186 221.296 166.278C223.114 162.235 213.854 153.945 213.911 152.718C214.117 148.414 222.276 156.335 222.936 155.591C222.815 143.407 213.612 135.776 201.484 138.698C199.893 139.081 198.04 140.79 197.834 140.783C197.401 140.769 193.822 135.443 192.082 134.23C188.212 131.528 179.975 129.876 176.851 134.23L176.858 134.244Z" fill="#3F863C"/>
<path d="M157.11 194.198C156.585 194.559 154.746 197.105 154.625 197.885C154.27 200.233 158.19 198.24 157.103 200.353C156.72 201.105 153.219 202.807 152.992 204.878C153.113 205.069 153.951 205.289 154.469 206.24C155.293 207.743 155.136 210.268 156.649 211.551C157.735 212.473 159.298 211.147 159.567 211.452C159.88 211.792 158.708 213.998 158.765 215.09C158.864 217.012 162.379 223.813 165.333 221.302C165.39 219.586 168.877 218.671 169.445 218.019C170.46 216.863 171.738 209.729 173.556 211.452C173.663 212.239 173.421 213.182 173.556 213.913C175.126 214.097 180.962 211.147 181.573 210.417C182.773 208.977 182.17 205.431 182.653 203.835C182.716 203.616 183.838 201.077 184.257 199.956C183.59 198.495 182.958 196.091 181.786 195.027C179.315 192.779 175.005 193.474 171.909 193.382C168.862 193.297 169.196 193.177 166.37 192.744C163.544 192.311 159.347 192.645 157.089 194.198H157.11Z" fill="#6CB453"/>
<path d="M185.912 196.666C186.253 198.184 184.513 199.297 184.265 199.95C183.846 201.07 182.724 203.609 182.66 203.829C182.184 205.431 182.788 208.97 181.58 210.41C180.97 211.14 175.133 214.097 173.563 213.906C174.316 217.806 174.65 221.416 174.38 225.402L169.452 218.012C168.877 218.665 165.39 219.579 165.341 221.296C165.312 222.09 170.858 233.252 171.689 235.897C172.349 237.997 173.215 245.556 173.578 245.925C173.94 246.294 181.886 245.677 183.455 245.932C182.61 229.777 184.57 213.736 189.214 198.297C188.93 198.169 186.082 196.772 185.919 196.652L185.912 196.666Z" fill="#3F863C"/>
<path d="M135.708 184.341C132.584 184.546 128.082 189.05 129.95 190.893C130.354 191.291 132.683 190.12 132.406 191.716C126.676 193.163 127.081 199.169 126.655 204.041L129.921 203.623C125.675 208.105 126.442 212.417 127.471 217.998L138.591 212.268C140.388 211.842 141.822 203.722 143.115 207.105C143.612 208.41 142.44 210.559 146.033 208.197C150.308 205.396 148.156 199.382 148.966 198.354C149.236 198.013 150.322 198.425 150.507 198.29C152.41 196.9 153.283 193.836 155.442 192.539C155.215 192.241 155.051 191.496 154.618 190.893C152.644 192.581 150.301 192.993 148.107 194.659C145.138 196.914 144.109 200.864 140.629 201.566C140.814 199.609 139.784 195.602 138.769 193.978C136.738 190.737 132.875 190.34 135.687 184.319L135.708 184.341Z" fill="#6CB453"/>
<path d="M135.708 184.34C132.896 190.361 136.752 190.751 138.79 193.999C139.805 195.623 140.842 199.63 140.65 201.587C144.13 200.892 145.159 196.942 148.128 194.68C150.315 193.013 152.665 192.602 154.639 190.914C154.156 190.248 153.886 189.524 152.992 189.269C151.756 189.794 149.718 189.269 147.453 190.723C145.472 191.992 145.124 194.049 143.129 195.013C142.12 192.184 140.537 185.305 137.355 184.34C137.015 184.241 136.177 184.312 135.708 184.34Z" fill="#3F863C"/>
<path d="M155.463 192.552C153.304 193.85 152.431 196.914 150.528 198.304C149.953 201.63 151.692 202.843 152.999 204.871C153.219 202.8 156.72 201.098 157.11 200.346C158.197 198.24 154.277 200.233 154.632 197.878C154.753 197.098 156.585 194.559 157.117 194.191C156.947 193.304 155.775 192.957 155.47 192.545L155.463 192.552Z" fill="#3F863C"/>
<path d="M171.099 180.234C170.183 184.099 172.704 189.262 171.923 193.375C175.019 193.46 179.322 192.772 181.8 195.02L182.624 192.56C182.191 191.985 181.289 188.765 180.92 188.496C180.444 188.475 179.613 188.326 179.329 188.453C179.017 188.595 177.888 191.68 177.007 188.716C176.006 185.361 176.397 180.227 174.394 176.951C174.053 177.553 171.497 178.561 171.099 180.234Z" fill="#3F863C"/>
<path d="M180.721 91.1624C181.253 88.815 180.948 86.3825 181.019 83.9926C180.593 83.5033 175.949 88.5384 174.735 88.1767L171.135 78.0143C170.538 77.9079 170.297 78.4185 169.949 78.766C167.208 81.5602 164.921 86.9853 164.545 90.8645C160.455 87.0704 155.541 84.7798 149.967 86.9286C148.625 87.4463 146.693 88.4675 146.274 89.9709H153.162C153.986 91.673 154.76 93.4317 154.959 95.3465C153.823 94.999 147.062 96.467 146.871 97.2967C146.679 98.1264 151.55 100.594 152.26 101.325C154.199 100.892 156.599 101.275 158.552 101.623C157.934 97.3534 157.451 95.311 162.33 94.7791C164.133 94.5877 167.783 94.7791 168.436 96.8357C165.461 97.9208 162.819 100.126 160.348 102.069C160.284 102.218 163.104 102.998 162.741 104.005C158.736 105.388 154.98 107.679 151.266 109.75C150.215 110.331 148.703 111.657 147.765 112.083C151.486 112.402 161.52 111.239 164.375 113.593C165.284 114.345 167.066 118.387 167.613 118.565C170.155 119.373 169.139 117.629 169.367 115.849C169.707 113.175 171.319 111.842 173.528 110.587C173.009 110.104 171.873 108.856 171.277 108.197C169.991 106.778 169.004 104.474 167.236 103.708C168.117 100.24 176.29 100.857 178.314 102.374C178.761 102.708 178.86 103.318 178.96 103.388C179.109 103.495 181.481 102.998 182.588 103.19C183.284 103.31 185.841 104.495 186.402 104.913C187.197 104.856 190.747 102.247 190.293 101.63L184.903 100.133C184.307 100.467 182.084 101.332 181.445 101.346C180.366 101.374 179.514 100.658 178.442 100.46C176.815 100.162 174.87 100.424 173.222 100.431C174.777 96.3393 176.127 92.6516 180.707 91.1694L180.721 91.1624ZM168.145 108.353C168.443 109.466 167.925 111.714 168.145 112.984C167.698 112.735 167.435 111.452 167.329 110.955C167.009 109.523 166.924 108.005 166.647 106.558C167.194 105.92 167.108 106.473 167.279 106.835C167.492 107.289 168.131 108.268 168.152 108.353H168.145ZM163.949 109.402C164.573 109.26 164.63 109.728 164.914 110.083C166.072 111.523 166.739 113.324 167.243 115.076C166.626 115.182 166.391 114.693 166.093 114.281C165.823 113.906 163.764 109.594 163.949 109.402Z" fill="#3F863C"/>
<path d="M181.247 133.5C182.766 133.5 184.037 132.315 184.137 130.798L185.585 109.111H150.493L151.792 130.777C151.884 132.301 153.155 133.5 154.682 133.5H181.24H181.247Z" fill="#4D4D4D"/>
<path d="M150.549 109.161L151.849 130.77C151.941 132.266 153.184 133.443 154.689 133.443H181.247C182.738 133.443 183.988 132.28 184.087 130.791L185.536 109.161H150.556M150.436 109.055H185.642L184.186 130.798C184.08 132.344 182.795 133.55 181.24 133.55H154.682C153.12 133.55 151.827 132.337 151.735 130.777L150.429 109.055H150.436Z" fill="black"/>
<path d="M180.721 91.1622C176.134 92.6444 174.785 96.3392 173.237 100.424C174.884 100.41 176.823 100.147 178.456 100.452C179.528 100.651 180.387 101.367 181.46 101.339C182.099 101.325 184.321 100.467 184.918 100.126C185.337 99.8921 186.7 98.7362 187.169 98.3391C189.533 96.3321 191.302 93.6869 193.595 91.609C193.609 90.9849 188.781 90.2687 188.071 90.2545C186.288 90.2048 182.383 90.6233 180.721 91.1622Z" fill="#6CB453"/>
<path d="M182.219 112.09C182.418 109.26 182.163 105.899 179.826 104.02C180.252 105.551 180.97 107.034 181.026 108.665C181.069 109.884 180.174 111.629 181.325 112.09C181.524 112.168 181.992 112.019 182.227 112.09H182.219Z" fill="#3F863C"/>
<path d="M146.572 109.7C145.891 109.622 142.908 112.104 143.278 112.388C144.463 111.913 145.664 112.409 146.572 112.388C146.643 111.516 146.473 110.544 146.572 109.7Z" fill="#3F863C"/>
<path d="M385.995 259.803C385.995 259.803 385.938 263.562 385.633 265.668C385.328 267.775 390.76 265.675 390.76 265.675C390.76 265.675 389.794 261.257 389.766 259.513" fill="#3F863C"/>
<path d="M383.254 169.597C383.339 171.001 384.909 172.994 385.15 174.852C385.292 175.951 384.838 177.022 384.866 178.114C383.758 176.774 382.537 174.029 380.882 173.611C380.336 173.476 379.647 173.604 379.064 173.377L378.986 173.752C376.764 171.448 374.364 172.568 371.9 172.625C371.026 172.646 370.259 172.362 369.393 172.426C370.657 174.043 372.674 174.703 374.065 176.213C374.08 176.192 374.271 176.235 374.328 176.149C374.598 175.752 375.258 174.689 375.628 174.547C376.054 174.391 377.666 174.142 378.163 174.121C379.178 174.072 380.009 174.369 380.989 174.511L379.377 174.986C378.44 175.412 378.099 176.32 377.531 177.178C377.367 177.426 376.43 178.83 376.373 178.908C377.353 179.504 378.262 179.717 379.072 180.61C379.909 180.553 381.798 180.121 382.601 180.383L381.06 181.702C380.854 181.887 380.854 182.241 380.825 182.27C382.352 183.22 384.305 184.014 386.066 183.787C387.735 183.567 389.318 182.277 390.824 181.518C390.788 181.482 390.767 181.149 390.596 180.943C389.624 179.795 388.36 178.213 386.961 178.107C388.203 176.263 391.725 176.305 393.167 177.724C393.295 177.851 394.147 179.1 394.211 179.241L400.012 176.972C397.797 176.419 395.539 175.142 393.245 175.837C393.131 176.022 393.053 175.852 392.734 176.653C392.393 177.504 392.13 175.873 391.967 175.547C391.392 174.419 389.119 170.746 388.21 170.299C387.898 170.15 387.614 170.129 387.287 170.157C387.167 170.036 387.728 169.235 387.77 169.214C387.749 168.838 387.799 168.455 387.77 168.079C387.223 168.122 387.046 168.838 386.776 169.278L385.519 173.192C385.065 171.221 384.085 169.412 383.424 167.512C383.346 168.2 383.218 168.895 383.261 169.597H383.254Z" fill="#3F863C"/>
<path d="M279.005 175.802H286.433V176.412H279.005V175.802Z" fill="#B3B3B3"/>
<path d="M279.119 175.923V176.298H286.312V175.923H279.119ZM278.884 175.688H286.553V176.539H278.884V175.688Z" fill="black"/>
<path d="M295.216 163.328L293.342 163.349L276.292 193.638L278.16 194.659L295.216 163.328Z" fill="#B3B3B3"/>
<path d="M295.018 163.448L293.413 163.462L276.456 193.595L278.117 194.496L295.025 163.448M295.422 163.207L278.21 194.815L276.129 193.687L293.271 163.228L295.422 163.207Z" fill="black"/>
<path d="M391.81 198.921C392.194 198.921 392.52 198.616 392.542 198.233L393.635 180.759H379.114L379.824 198.219C379.838 198.616 380.165 198.921 380.555 198.921H391.81Z" fill="#4D4D4D"/>
<path d="M379.171 180.816L379.874 198.219C379.888 198.581 380.186 198.871 380.555 198.871H391.81C392.165 198.871 392.464 198.595 392.485 198.233L393.571 180.816H379.164M379.064 180.709H393.699L392.606 198.24C392.577 198.652 392.236 198.978 391.817 198.978H380.562C380.144 198.978 379.796 198.644 379.774 198.226L379.064 180.717V180.709Z" fill="black"/>
<path d="M410.713 204.048L405.259 204.814L413.447 289.348L418.9 289.369L410.713 204.048Z" fill="#FFA54F"/>
<path d="M410.628 204.155L405.359 204.892L413.532 289.255L418.794 289.277L410.628 204.155ZM410.791 203.942L419 289.461L413.362 289.44L405.153 204.729L410.791 203.942Z" fill="black"/>
<path d="M246.362 203.998L240.908 203.232L232.721 289.312L238.174 289.347L246.362 203.998Z" fill="#FFA54F"/>
<path d="M240.994 203.339L232.828 289.22L238.089 289.255L246.263 204.077L240.994 203.339ZM240.823 203.126L246.461 203.913L238.253 289.433L232.615 289.397L240.823 203.119V203.126Z" fill="black"/>
<path d="M233.957 199.368H418.035V205.928H233.957V199.368Z" fill="white"/>
<path d="M234.099 199.524V205.786H417.885V199.524H234.106M233.801 199.219H418.184V206.076H233.801V199.219Z" fill="black"/>
<path d="M394.637 289.078C396.156 289.078 397.392 287.844 397.392 286.319L398.876 265.562H377.076L378.582 286.312C378.582 287.837 379.817 289.071 381.344 289.071H394.637V289.078Z" fill="#998675"/>
<path d="M377.154 265.633L378.653 286.32C378.653 287.802 379.86 289.007 381.344 289.007H394.637C396.121 289.007 397.328 287.802 397.328 286.313L398.805 265.633H377.161M377.005 265.491H398.954L397.463 286.32C397.463 287.88 396.199 289.142 394.637 289.142H381.344C379.782 289.142 378.518 287.88 378.518 286.32L377.005 265.491Z" fill="black"/>
<path d="M200.036 289.645C202.173 289.645 203.927 288.043 204.111 285.922L208.06 241.684H147.183L149.718 285.795C149.839 287.958 151.636 289.645 153.808 289.645H200.028H200.036Z" fill="#603813"/>
<path d="M147.311 241.805L149.839 285.787C149.96 287.887 151.699 289.525 153.801 289.525H200.028C202.102 289.525 203.799 287.972 203.983 285.908L207.917 241.798H147.304M147.055 241.556H208.194L204.232 285.929C204.04 288.099 202.215 289.766 200.035 289.766H153.808C151.571 289.766 149.725 288.021 149.597 285.795L147.055 241.549V241.556Z" fill="black"/>
<path d="M281.945 199.24L278.614 168.256L268.9 168.278L266.678 171.327L258.909 171.377L255.693 199.24H281.945Z" fill="#B3B3B3"/>
<path d="M278.515 168.37L268.957 168.391L266.799 171.349L266.735 171.441H266.621L259.009 171.49L255.813 199.134H281.824L278.515 168.377M278.714 168.143L282.073 199.347H255.565L258.81 171.263L266.621 171.214L268.844 168.164L278.714 168.143Z" fill="black"/>
<path d="M181.637 103.317L167.535 85.2192L155.35 101.176" stroke="black" stroke-width="0.35" stroke-miterlimit="10"/>
<path d="M290.573 162.356H298.007V163.257H290.573V162.356Z" fill="#B3B3B3" stroke="black" stroke-width="0.2" stroke-miterlimit="10"/>
<path d="M390.788 223.94C390.184 220.182 387.166 216.728 383.374 215.948C382.302 215.728 377.303 215.239 376.714 215.877L379.462 219.558L380.009 221.856C380.442 222.068 382.586 223.94 383.012 224.387C388.516 230.21 388.111 239.273 387.5 246.662C387.401 247.903 387.166 249.109 387.166 250.364L386.605 252.641C386.364 250.534 386.868 248.442 386.904 246.365C386.918 245.251 386.691 244.592 386.605 243.677H386.307C383.658 244.989 380.953 245.251 378.219 246.067C379.362 247.918 382.764 249.003 384.035 250.272C384.503 250.74 386.002 254.392 386.002 254.882V259.81C386.825 259.676 389.318 260.13 389.772 259.52C389.623 256.094 388.48 249.074 393.792 249.648C393.735 249.57 393.841 249.059 393.621 248.783C392.492 247.322 392.244 246.875 390.497 246.06C390.376 246.003 390.078 246.109 389.9 246.06C389.723 245.847 391.256 241.294 391.995 240.982C391.739 240.805 391.533 239.961 390.795 240.088C390.774 240.755 389.545 243.4 388.998 243.975C388.53 241.79 389.46 239.975 389.893 237.996C390.056 237.259 389.595 236.145 390.163 235.429C390.823 234.592 392.215 235.436 392.89 234.557C391.917 233.933 391.001 233.805 389.9 234.11C389.637 231.288 388.942 228.635 389.914 225.905C390.007 225.65 390.724 224.026 390.802 223.948L390.788 223.94Z" fill="#3F863C"/>
<path d="M372.815 226.926C372.716 226.919 371.09 226.912 370.87 226.926C367.035 227.153 363.953 229.458 363.833 233.5C364.827 233.67 364.209 232.656 365.04 232.167C368.285 230.273 369.4 233.692 371.473 235.287C372.659 236.195 376.437 238.273 377.829 238.514C380.428 238.954 383.985 237.429 384.496 241.273C381.194 240.571 375.634 239.578 372.546 241.152C368.661 243.131 370.564 247.081 370.422 250.535C371.601 250.648 372.105 249.407 373.014 248.79C374.399 247.854 376.678 246.506 378.205 246.053C380.939 245.237 383.644 244.975 386.293 243.663L383.595 236.791C382.111 234.415 380.74 231.855 378.503 230.061C377.779 229.479 373.426 226.983 372.808 226.926H372.815Z" fill="#6CB453"/>
<path d="M383.254 169.597C382.906 169.689 382.906 169.377 382.771 169.136C382.281 168.235 381.947 167.299 381.386 166.398C379.81 163.859 377.445 162.306 374.875 161.654L379.064 173.391C379.647 173.61 380.336 173.483 380.882 173.625C382.537 174.043 383.758 176.788 384.866 178.128C384.838 177.036 385.299 175.965 385.15 174.866C384.909 173.008 383.339 171.022 383.254 169.611V169.597Z" fill="#6CB453"/>
<path d="M390.788 223.941C390.71 224.019 389.993 225.643 389.9 225.898C388.928 228.635 389.623 231.288 389.886 234.103C390.987 233.798 391.903 233.926 392.876 234.55C392.208 235.429 390.816 234.585 390.149 235.422C389.581 236.138 390.042 237.252 389.879 237.989C390.298 238.592 390.802 239.308 390.781 240.081C391.519 239.961 391.725 240.805 391.981 240.975C392.89 241.599 395.255 243.11 396.171 243.514C399.309 244.89 401.411 244.322 404.109 247.244C404.422 247.577 405.317 249.471 405.75 249.038C406.382 248.4 406.453 242.322 406.318 241.152C405.799 236.684 402.27 232.387 397.356 233.642C396.185 233.94 394.935 235.422 394.452 235.557C393.657 235.77 392.144 235.351 393.401 234.479C394.836 233.486 396.81 232.983 398.28 232.174C400.602 230.898 401.368 229.657 403.058 227.827C403.101 227.784 403.009 227.472 403.151 227.323C404.258 226.182 406.211 224.43 407.852 225.132C407.241 223.671 407.454 223.614 405.75 222.891C401.972 221.288 397.903 221.288 394.076 222.593C393.628 222.749 390.902 223.806 390.774 223.934L390.788 223.941Z" fill="#6CB453"/>
<path d="M368.924 222.146C370.657 222.466 371.118 222.77 371.921 224.238C372.127 224.614 372.702 225.714 372.823 226.033L376.48 227.018C380.648 229.132 382.224 232.897 384.205 236.798C385.846 240.025 386.243 239.862 386.598 243.67C386.684 244.585 386.918 245.244 386.897 246.358L387.493 246.655C388.104 239.259 388.509 230.203 383.005 224.38C382.586 223.934 380.435 222.061 380.002 221.849C379.448 221.572 377.176 220.905 376.465 220.742C373.845 220.139 370.756 219.877 368.917 222.146H368.924Z" fill="#6CB453"/>
<path d="M383.41 167.519C384.07 169.419 385.058 171.228 385.505 173.199L386.762 169.285C387.032 168.845 387.209 168.129 387.756 168.086C387.685 167.136 387.38 166.207 387.358 165.235L385.903 159.377C384.994 162.122 383.744 164.576 383.403 167.512L383.41 167.519Z" fill="#6CB453"/>
<path d="M394.211 179.249C394.147 179.107 393.295 177.859 393.167 177.731C391.718 176.313 388.203 176.27 386.961 178.114C388.359 178.22 389.623 179.802 390.596 180.951C390.767 181.156 390.795 181.483 390.823 181.525C392.158 183.099 393.614 184.184 395.333 185.121C394.686 183.277 394.992 181.007 394.203 179.256L394.211 179.249Z" fill="#6CB453"/>
<path d="M391.633 168.845C391.697 168.873 392.578 169.852 392.67 169.994C393.43 171.15 393.636 173.922 393.401 175.284C395.496 171.859 397.214 168.022 397.591 163.739C395.574 165.498 393.124 166.341 391.626 168.852L391.633 168.845Z" fill="#3F863C"/>
<path d="M377.289 177.93C377.339 177.852 377.374 177.433 377.537 177.185C378.106 176.334 378.453 175.419 379.384 174.994L380.996 174.519C380.016 174.377 379.185 174.079 378.169 174.129C377.672 174.157 376.053 174.398 375.634 174.554C375.265 174.689 374.598 175.76 374.335 176.157C374.278 176.242 374.086 176.199 374.072 176.221C373.71 176.802 372.993 178.689 372.709 179.447C372.538 179.901 371.629 182.412 371.821 182.66C373.092 182.107 374.456 181.284 375.45 180.206C375.897 179.717 376.934 178.462 377.303 177.93H377.289Z" fill="#6CB453"/>
<path d="M390.49 246.06C392.237 246.875 392.485 247.315 393.614 248.783C393.827 249.06 393.721 249.57 393.785 249.648C393.905 249.804 395.262 250.974 395.475 251.102C398.599 251.925 400.68 254.527 403.066 256.527C404.258 252.35 403.953 247.634 399.749 245.343C398.081 244.429 397.328 245.195 396.028 245.109C394.062 244.982 392.002 243.741 390.49 246.067V246.06Z" fill="#6CB453"/>
<path d="M387.763 169.221C387.72 169.242 387.16 170.05 387.28 170.164C387.607 170.136 387.898 170.164 388.203 170.306C389.112 170.745 391.385 174.419 391.96 175.554C392.123 175.88 392.386 177.504 392.727 176.66C393.046 175.859 393.131 176.029 393.238 175.844C393.252 175.823 393.387 175.341 393.401 175.277C393.636 173.915 393.423 171.143 392.67 169.987C392.578 169.845 391.697 168.866 391.633 168.838C391.441 168.76 389.95 168.809 389.624 168.838C389.382 168.859 387.884 169.15 387.77 169.214L387.763 169.221Z" fill="#6CB453"/>
<path d="M381.124 177.66C378.475 178.603 378.063 181.206 375.883 183C375.635 183.205 373.767 183.822 374.449 184.276C374.697 184.439 378.255 184.127 378.731 183.986C379.831 183.659 382.523 181.518 383.062 180.39C383.091 180.333 382.942 179.823 383.148 179.475L384.703 176.965C383.503 176.887 382.232 177.27 381.117 177.667L381.124 177.66Z" fill="#6CB453"/>
<path d="M407.859 225.132C406.211 224.43 404.258 226.174 403.158 227.323C403.016 227.472 403.108 227.784 403.066 227.827C403.676 228.337 404.748 229.132 405.174 229.756C405.572 230.33 405.331 231.387 406.204 231.408C407.354 231.16 408.441 227.231 408.42 226.153C408.405 225.493 407.965 225.387 407.859 225.132Z" fill="#3F863C"/>
<path d="M372.815 226.032C372.894 226.231 372.766 226.671 372.815 226.926C373.433 226.983 377.786 229.479 378.51 230.061C380.74 231.855 382.111 234.415 383.602 236.791H384.198C382.217 232.89 380.641 229.132 376.472 227.011L372.815 226.025V226.032Z" fill="#3F863C"/>
<path d="M368.924 222.146C367.852 223.466 367.774 224.324 368.328 226.033C369.627 225.536 370.344 224.288 371.921 224.239C371.118 222.771 370.657 222.466 368.924 222.146Z" fill="#3F863C"/>
<path d="M353.998 212.835L354.467 185.929L350.98 192.156C348.971 197.028 347.948 202.382 346.308 207.389C346.017 208.268 346.18 209.197 345.016 208.913C344.916 212.693 344 214.083 343.645 217.097C343.155 221.253 343.127 225.501 342.651 229.65L339.115 222.359C338.064 218.835 337.091 216.055 336.984 212.275C335.969 212.275 335.692 211.608 335.174 210.779C331.417 204.772 328.137 194.716 324.26 189.681C324.075 189.44 323.116 188.688 322.818 189C323.649 193.865 324.529 198.73 325.112 203.651C325.836 209.779 325.729 215.537 327.299 221.799C328.08 224.934 329.869 228.175 330.714 231.203C331.46 233.855 331.609 237.358 332.262 239.741C333.796 245.337 338.014 252.634 341.245 257.123C344.362 257.853 344.852 257.605 347.863 257.123C351.896 252.939 355.688 249.428 358.259 243.67C361.987 235.323 363.137 226.302 365.097 217.303C366.027 213.041 367.817 208.211 368.633 204.112C368.797 203.311 368.633 203.12 367.959 203.318C366.148 203.85 362.896 210.041 360.623 210.594C360.389 214.878 358.813 221.012 357.535 225.146C356.249 229.302 354.63 233.408 352.351 236.94C351.683 233.337 353.231 229.536 353.53 226.005C353.885 221.806 353.572 217.104 354.005 212.835H353.998ZM345.967 248.712C346.84 243.124 343.283 236.678 343.113 231.586C343.041 229.472 343.929 227.373 343.61 225.168C344.263 225.168 344.582 226.799 344.767 227.43C346.138 232.075 346.62 238.16 346.919 243.103C349.51 241.174 349.418 236.522 351.634 234.132C351.627 235.642 351.797 237.16 351.428 238.642C351.236 239.408 347.65 246.847 347.032 247.982C346.734 248.535 347.082 248.989 345.974 248.705L345.967 248.712Z" fill="#6CB453"/>
<path d="M336.985 212.275C337.091 216.055 338.071 218.835 339.115 222.359L342.651 229.649C343.134 225.494 343.162 221.246 343.645 217.097C344 214.083 344.916 212.693 345.016 208.913C345.179 202.736 343.425 196.269 342.715 190.063C342.182 185.468 342.332 180.695 341.714 176.114C341.6 175.277 341.685 174.384 340.769 174.157C340.251 178.866 338.973 183.844 338.447 188.51C337.673 195.347 336.786 205.516 336.985 212.282V212.275Z" fill="#3F863C"/>
<path d="M332.255 239.741C327.342 237.138 322.96 234.365 317.379 234.117C316.946 234.096 315.284 233.734 315.717 234.968C317.585 236.947 319.254 239.535 321.15 241.422C323.947 244.209 325.467 245.705 328.215 248.733C331.467 252.322 336.878 256.102 341.231 257.116C338.007 252.627 333.789 245.336 332.248 239.734L332.255 239.741Z" fill="#3F863C"/>
<path d="M358.252 243.663C355.681 249.421 351.889 252.931 347.856 257.116C357.684 255.548 366.617 249.613 375.266 244.209C375.635 242.847 374.335 242.854 373.49 242.698C368.534 241.79 362.91 241.23 358.252 243.655V243.663Z" fill="#3F863C"/>
<path d="M360.616 210.594C360.758 207.991 360.95 199.184 360.268 197.276C360.048 196.652 359.807 195.936 359.21 196.581C357.939 197.964 356 210.367 354.005 212.835C353.572 217.097 353.884 221.806 353.529 226.004C353.231 229.529 351.683 233.337 352.351 236.94C354.623 233.408 356.249 229.302 357.534 225.146C358.812 221.012 360.396 214.878 360.623 210.594H360.616Z" fill="#3F863C"/>
<path d="M345.967 248.712C347.075 248.996 346.727 248.542 347.025 247.989C347.643 246.854 351.229 239.415 351.42 238.649C351.797 237.16 351.619 235.649 351.626 234.139C349.404 236.522 349.503 241.174 346.911 243.11C346.613 238.167 346.137 232.082 344.76 227.437C344.575 226.813 344.256 225.175 343.602 225.175C343.922 227.38 343.034 229.472 343.105 231.593C343.283 236.685 346.833 243.131 345.96 248.719L345.967 248.712Z" fill="#3F863C"/>
<path d="M222.006 203.991C223.746 203.679 222.56 197.772 221.182 197.432L222.006 203.991Z" fill="#3F863C"/>
<path d="M222.822 206.46C223.106 207.02 224.221 205.977 223.632 204.828C223.348 204.268 222.233 205.311 222.822 206.46Z" fill="#3F863C"/>
<path d="M220.358 196.602C220.642 197.162 221.757 196.12 221.168 194.971C220.884 194.411 219.769 195.453 220.358 196.602Z" fill="#3F863C"/>
<path d="M357.939 289.879C359.679 289.879 361.149 288.574 361.362 286.851L365.232 254.655H326.518L329.543 286.766C329.713 288.546 331.183 289.886 332.972 289.886H357.946L357.939 289.879Z" fill="#603813"/>
<path d="M326.645 254.776L329.656 286.752C329.819 288.468 331.24 289.759 332.965 289.759H357.939C359.622 289.759 361.035 288.504 361.234 286.837L365.09 254.776H326.645ZM326.375 254.527H365.367L361.482 286.859C361.269 288.646 359.75 289.993 357.939 289.993H332.965C331.126 289.993 329.585 288.596 329.415 286.766L326.383 254.527H326.375Z" fill="black"/>
<path d="M147.773 112.09C148.71 111.664 150.229 110.338 151.273 109.757C154.987 107.686 158.743 105.402 162.748 104.012C163.111 103.005 160.291 102.218 160.355 102.076C162.827 100.133 165.468 97.9206 168.443 96.8427C167.783 94.7861 164.133 94.5946 162.337 94.7861C157.458 95.3109 157.941 97.3604 158.559 101.63C156.613 101.282 154.213 100.899 152.267 101.332C150.94 101.63 148.689 103.218 147.943 104.339C147.197 105.459 146.736 108.303 146.572 109.7C146.473 110.544 146.643 111.523 146.572 112.388C146.814 112.388 147.538 112.196 147.773 112.09Z" fill="#6CB453"/>
<path d="M186.416 104.913C185.855 104.495 183.291 103.31 182.603 103.19C181.488 102.998 179.123 103.502 178.974 103.388C178.875 103.318 178.775 102.715 178.328 102.374C176.304 100.857 168.131 100.24 167.25 103.708C169.019 104.474 170.006 106.778 171.291 108.197C171.887 108.856 173.023 110.104 173.542 110.587C173.854 110.884 175.061 111.388 175.644 111.927C176.893 113.097 177.895 114.444 179.088 115.664C179.585 114.728 180.06 113.799 180.401 112.778C180.621 112.118 180.139 111.934 181.332 112.076C180.181 111.615 181.076 109.87 181.033 108.651C180.977 107.019 180.259 105.537 179.833 104.005C182.169 105.892 182.425 109.246 182.226 112.076C182.517 112.168 182.787 112.487 183.341 112.601C186.522 113.246 189.54 113.395 192.714 112.672C190.534 109.955 189.306 107.629 186.522 105.395C186.387 105.282 186.451 104.927 186.423 104.906L186.416 104.913Z" fill="#6CB453"/>
</g>
<defs>
<clipPath id="clip0_328_2">
<rect width="294" height="212" fill="white" transform="matrix(-1 0 0 1 419 78)"/>
</clipPath>
</defs>
</svg>
