<svg width="439" height="289" viewBox="0 0 439 289" fill="none" xmlns="http://www.w3.org/2000/svg">
<path d="M439 0L439 144.5L439 289H0L439 0Z" fill="white"/>
<g clip-path="url(#clip0_243_2318)">
<path d="M64.6399 263.36H53.6099V287.62H64.6399V263.36Z" fill="white" stroke="black" stroke-miterlimit="10"/>
<path d="M261.06 263.83H250.03V288.09H261.06V263.83Z" fill="white" stroke="black" stroke-miterlimit="10"/>
<path d="M374.21 240.72C374.16 241.5 373.3 242.59 373.16 243.62C373.08 244.23 373.33 244.82 373.32 245.42C373.93 244.68 374.6 243.17 375.51 242.94C375.81 242.86 376.19 242.94 376.51 242.81L376.55 243.02C377.77 241.75 379.1 242.37 380.45 242.4C380.93 242.41 381.35 242.26 381.83 242.29C381.13 243.18 380.02 243.55 379.25 244.38C379.25 244.37 379.14 244.39 379.1 244.34C378.95 244.12 378.59 243.53 378.38 243.46C378.15 243.37 377.26 243.24 376.98 243.22C376.42 243.19 375.96 243.36 375.42 243.43L376.31 243.69C376.82 243.92 377.01 244.43 377.33 244.9C377.42 245.04 377.94 245.81 377.97 245.85C377.43 246.18 376.93 246.3 376.48 246.79C376.02 246.76 374.98 246.52 374.54 246.67L375.39 247.4C375.5 247.5 375.5 247.7 375.52 247.71C374.68 248.23 373.6 248.67 372.63 248.55C371.71 248.43 370.84 247.72 370.01 247.3C370.03 247.28 370.04 247.1 370.14 246.98C370.68 246.35 371.37 245.48 372.14 245.42C371.45 244.4 369.52 244.43 368.72 245.21C368.65 245.28 368.18 245.97 368.14 246.05L364.94 244.8C366.16 244.5 367.4 243.79 368.67 244.17C368.73 244.27 368.78 244.17 368.95 244.62C369.14 245.09 369.28 244.19 369.37 244.01C369.69 243.39 370.94 241.36 371.44 241.12C371.61 241.04 371.77 241.03 371.95 241.04C372.02 240.97 371.71 240.53 371.68 240.52C371.69 240.31 371.67 240.1 371.68 239.89C371.98 239.91 372.08 240.31 372.23 240.55L372.92 242.71C373.17 241.62 373.71 240.63 374.08 239.58C374.12 239.96 374.19 240.34 374.17 240.73L374.21 240.72Z" fill="#3F863C"/>
<path d="M268.77 253.28H46.3599V263.36H268.77V253.28Z" fill="white" stroke="black" stroke-miterlimit="10"/>
<path d="M397.78 172.32H296.34V285.73H397.78V172.32Z" fill="#B3B3B3"/>
<path d="M392.58 176.73H300.28V281.63H392.58V176.73Z" fill="white"/>
<path d="M394.16 194.1H298.86V198.31H394.16V194.1Z" fill="#B3B3B3"/>
<path d="M393.66 228.43H299.36V232.64H393.66V228.43Z" fill="#B3B3B3"/>
<path d="M393.66 256.79H298.86V261H393.66V256.79Z" fill="#B3B3B3"/>
<path d="M279.72 90H34V214.53H279.72V90Z" fill="#1A1A1A" stroke="black" stroke-width="4" stroke-linecap="round" stroke-linejoin="round"/>
<path d="M73.22 239.26H63.77V252.81H73.22V239.26Z" fill="#29ABE2"/>
<path d="M308.868 180.05L303.935 180.563L305.317 193.841L310.25 193.328L308.868 180.05Z" fill="#39B54A" stroke="black" stroke-width="1.09" stroke-miterlimit="10"/>
<path d="M366.632 179.703L361.699 180.216L363.08 193.495L368.014 192.981L366.632 179.703Z" fill="#FF0000" stroke="black" stroke-width="1.09" stroke-miterlimit="10"/>
<path d="M373.724 179.7L368.791 180.213L370.172 193.491L375.105 192.978L373.724 179.7Z" fill="#00FFFF" stroke="black" stroke-width="1.09" stroke-miterlimit="10"/>
<path d="M380.806 179.697L375.873 180.21L377.254 193.488L382.187 192.975L380.806 179.697Z" fill="black" stroke="black" stroke-width="1.09" stroke-miterlimit="10"/>
<path d="M387.898 179.703L382.964 180.216L384.346 193.495L389.279 192.981L387.898 179.703Z" fill="black" stroke="black" stroke-width="1.09" stroke-miterlimit="10"/>
<path d="M306.439 266.895L301.506 267.408L302.887 280.687L307.821 280.173L306.439 266.895Z" fill="#39B54A" stroke="black" stroke-width="1.09" stroke-miterlimit="10"/>
<path d="M313.521 266.901L308.588 267.415L309.969 280.693L314.903 280.18L313.521 266.901Z" fill="#39B54A" stroke="black" stroke-width="1.09" stroke-miterlimit="10"/>
<path d="M320.603 266.898L315.67 267.412L317.051 280.69L321.985 280.177L320.603 266.898Z" fill="#00FFFF" stroke="black" stroke-width="1.09" stroke-miterlimit="10"/>
<path d="M327.695 266.905L322.762 267.418L324.143 280.696L329.077 280.183L327.695 266.905Z" fill="#FF0000" stroke="black" stroke-width="1.09" stroke-miterlimit="10"/>
<path d="M311.136 193.204L316.07 193.717L317.451 180.439L312.518 179.926L311.136 193.204Z" fill="#FF0000" stroke="black" stroke-width="1.09" stroke-miterlimit="10"/>
<path d="M318.235 193.211L323.168 193.725L324.55 180.446L319.616 179.933L318.235 193.211Z" fill="#39B54A" stroke="black" stroke-width="1.09" stroke-miterlimit="10"/>
<path d="M325.322 193.207L330.256 193.721L331.637 180.442L326.704 179.929L325.322 193.207Z" fill="#FF0000" stroke="black" stroke-width="1.09" stroke-miterlimit="10"/>
<path d="M332.401 193.203L337.334 193.717L338.716 180.438L333.782 179.925L332.401 193.203Z" fill="#39B54A" stroke="black" stroke-width="1.09" stroke-miterlimit="10"/>
<path d="M339.489 193.21L344.422 193.723L345.803 180.445L340.87 179.932L339.489 193.21Z" fill="#FF0000" stroke="black" stroke-width="1.09" stroke-miterlimit="10"/>
<path d="M346.577 193.206L351.51 193.72L352.892 180.441L347.958 179.928L346.577 193.206Z" fill="#00FFFF" stroke="black" stroke-width="1.09" stroke-miterlimit="10"/>
<path d="M353.675 193.214L358.608 193.727L359.989 180.449L355.056 179.935L353.675 193.214Z" fill="#00FFFF" stroke="black" stroke-width="1.09" stroke-miterlimit="10"/>
<path d="M322.36 201.85H306.18V227.37H322.36V201.85Z" fill="black" stroke="black" stroke-width="1.09" stroke-miterlimit="10"/>
<path d="M389.7 201.85H373.52V227.37H389.7V201.85Z" fill="black" stroke="black" stroke-width="1.09" stroke-miterlimit="10"/>
<path d="M370.21 218.16H326.03V226.78H370.21V218.16Z" fill="black" stroke="black" stroke-width="1.09" stroke-miterlimit="10"/>
<path d="M370.21 207.52H326.03V216.14H370.21V207.52Z" fill="black" stroke="black" stroke-width="1.09" stroke-miterlimit="10"/>
<path d="M345.597 204.038L327.648 204.667L327.735 207.146L345.684 206.516L345.597 204.038Z" fill="#00FFFF" stroke="black" stroke-width="1.09" stroke-miterlimit="10"/>
<path d="M344.219 200.948L327.529 201.534L327.61 203.842L344.3 203.257L344.219 200.948Z" fill="#39B54A" stroke="black" stroke-width="1.09" stroke-miterlimit="10"/>
<path d="M383.454 278.174L365.505 278.804L365.592 281.282L383.541 280.652L383.454 278.174Z" fill="#00FFFF" stroke="black" stroke-width="1.09" stroke-miterlimit="10"/>
<path d="M382.086 275.074L365.396 275.66L365.477 277.968L382.167 277.383L382.086 275.074Z" fill="#FF0000" stroke="black" stroke-width="1.02" stroke-miterlimit="10"/>
<path d="M318.24 253.36H302.72V256.04H318.24V253.36Z" fill="black" stroke="black" stroke-width="0.59" stroke-miterlimit="10"/>
<path d="M318.48 249.89H302.96V252.57H318.48V249.89Z" fill="#00FFFF" stroke="black" stroke-width="0.59" stroke-miterlimit="10"/>
<path d="M318.71 246.43H303.19V249.11H318.71V246.43Z" fill="#00FFFF" stroke="black" stroke-width="0.59" stroke-miterlimit="10"/>
<path d="M318.95 242.96H303.43V245.64H318.95V242.96Z" fill="#39B54A" stroke="black" stroke-width="0.59" stroke-miterlimit="10"/>
<path d="M318.55 239.58H303.03V242.26H318.55V239.58Z" fill="#00FFFF" stroke="black" stroke-width="0.59" stroke-miterlimit="10"/>
<path d="M318.16 236.19H302.64V238.87H318.16V236.19Z" fill="#39B54A" stroke="black" stroke-width="0.59" stroke-miterlimit="10"/>
<path d="M339.489 244.105L336.91 243.772L335.413 255.376L337.992 255.708L339.489 244.105Z" fill="#FF0000" stroke="black" stroke-width="0.59" stroke-miterlimit="10"/>
<path d="M343.099 244.106L340.521 243.773L339.024 255.377L341.602 255.71L343.099 244.106Z" fill="black" stroke="black" stroke-width="0.59" stroke-miterlimit="10"/>
<path d="M346.7 244.107L344.121 243.774L342.624 255.378L345.203 255.71L346.7 244.107Z" fill="#FF0000" stroke="black" stroke-width="0.59" stroke-miterlimit="10"/>
<path d="M350.31 244.108L347.731 243.776L346.235 255.38L348.813 255.712L350.31 244.108Z" fill="black" stroke="black" stroke-width="0.59" stroke-miterlimit="10"/>
<path d="M351.77 255.68H342.69V256.07H351.77V255.68Z" fill="white" stroke="black" stroke-width="0.47" stroke-miterlimit="10"/>
<path d="M351.31 241.24V255.26H351.7V241.24H351.31Z" fill="white" stroke="black" stroke-width="0.59" stroke-miterlimit="10"/>
<path d="M377.66 255.98H368.25C367.45 255.98 366.77 255.37 366.69 254.57L365.82 246.05H380L379.22 254.55C379.15 255.36 378.47 255.97 377.66 255.97V255.98Z" fill="white" stroke="black" stroke-width="0.59" stroke-miterlimit="10"/>
<path d="M332.085 255.83L334.664 255.498L333.167 243.894L330.589 244.226L332.085 255.83Z" fill="black" stroke="black" stroke-width="0.59" stroke-miterlimit="10"/>
<path d="M328.486 255.828L331.064 255.496L329.568 243.892L326.989 244.224L328.486 255.828Z" fill="#FF0000" stroke="black" stroke-width="0.59" stroke-miterlimit="10"/>
<path d="M324.876 255.828L327.455 255.495L325.958 243.891L323.379 244.224L324.876 255.828Z" fill="#00FFFF" stroke="black" stroke-width="0.59" stroke-miterlimit="10"/>
<path d="M321.276 255.826L323.855 255.494L322.358 243.89L319.78 244.222L321.276 255.826Z" fill="#FF0000" stroke="black" stroke-width="0.59" stroke-miterlimit="10"/>
<path d="M314.17 225.58C317.583 225.58 320.35 222.813 320.35 219.4C320.35 215.987 317.583 213.22 314.17 213.22C310.757 213.22 307.99 215.987 307.99 219.4C307.99 222.813 310.757 225.58 314.17 225.58Z" fill="#1A1A1A" stroke="black" stroke-linecap="round" stroke-linejoin="round"/>
<path d="M381.37 225.57C384.778 225.57 387.54 222.808 387.54 219.4C387.54 215.992 384.778 213.23 381.37 213.23C377.963 213.23 375.2 215.992 375.2 219.4C375.2 222.808 377.963 225.57 381.37 225.57Z" fill="#1A1A1A" stroke="black" stroke-linecap="round" stroke-linejoin="round"/>
<path d="M381.41 211.57C383.47 211.57 385.14 209.9 385.14 207.84C385.14 205.78 383.47 204.11 381.41 204.11C379.35 204.11 377.68 205.78 377.68 207.84C377.68 209.9 379.35 211.57 381.41 211.57Z" fill="#1A1A1A" stroke="black" stroke-width="0.6" stroke-linecap="round" stroke-linejoin="round"/>
<path d="M314.08 211.57C316.14 211.57 317.81 209.9 317.81 207.84C317.81 205.78 316.14 204.11 314.08 204.11C312.02 204.11 310.35 205.78 310.35 207.84C310.35 209.9 312.02 211.57 314.08 211.57Z" fill="#1A1A1A" stroke="black" stroke-width="0.6" stroke-linecap="round" stroke-linejoin="round"/>
<path d="M356.7 222.74H337.9V224.27H356.7V222.74Z" fill="#4D4D4D" stroke="#4D4D4D" stroke-width="0.25" stroke-miterlimit="10"/>
<path d="M358.84 223.54H357.68V224.69H358.84V223.54Z" fill="#4D4D4D" stroke="#4D4D4D" stroke-width="0.25" stroke-miterlimit="10"/>
<path d="M360.55 223.53H359.39V224.68H360.55V223.53Z" fill="#4D4D4D" stroke="#4D4D4D" stroke-width="0.25" stroke-miterlimit="10"/>
<path d="M366.45 223.48H365.29V224.63H366.45V223.48Z" fill="#4D4D4D" stroke="#4D4D4D" stroke-width="0.25" stroke-miterlimit="10"/>
<path d="M329.9 224.61C330.783 224.61 331.5 223.894 331.5 223.01C331.5 222.126 330.783 221.41 329.9 221.41C329.016 221.41 328.3 222.126 328.3 223.01C328.3 223.894 329.016 224.61 329.9 224.61Z" fill="#4D4D4D" stroke="#4D4D4D" stroke-width="0.25" stroke-miterlimit="10"/>
<path d="M334.5 224.61C335.384 224.61 336.1 223.894 336.1 223.01C336.1 222.126 335.384 221.41 334.5 221.41C333.616 221.41 332.9 222.126 332.9 223.01C332.9 223.894 333.616 224.61 334.5 224.61Z" fill="#4D4D4D" stroke="#4D4D4D" stroke-width="0.25" stroke-miterlimit="10"/>
<path d="M366.49 220.24H357.69V222.97H366.49V220.24Z" fill="#4D4D4D" stroke="#4D4D4D" stroke-width="0.25" stroke-miterlimit="10"/>
<path d="M326.64 216.72H325.61V217.67H326.64V216.72Z" fill="black" stroke="black" stroke-width="0.23" stroke-miterlimit="10"/>
<path d="M370.64 216.72H369.61V217.67H370.64V216.72Z" fill="black" stroke="black" stroke-width="0.23" stroke-miterlimit="10"/>
<path d="M351.23 209.47H337.38V214.47H351.23V209.47Z" fill="#4D4D4D" stroke="#4D4D4D" stroke-width="0.25" stroke-miterlimit="10"/>
<path d="M353.33 209.47H352.08V210.72H353.33V209.47Z" fill="#4D4D4D" stroke="#4D4D4D" stroke-width="0.25" stroke-miterlimit="10"/>
<path d="M353.33 211.32H352.08V212.57H353.33V211.32Z" fill="#4D4D4D" stroke="#4D4D4D" stroke-width="0.25" stroke-miterlimit="10"/>
<path d="M353.33 213.2H352.08V214.45H353.33V213.2Z" fill="#4D4D4D" stroke="#4D4D4D" stroke-width="0.25" stroke-miterlimit="10"/>
<path d="M355.15 209.47H353.9V210.72H355.15V209.47Z" fill="#4D4D4D" stroke="#4D4D4D" stroke-width="0.25" stroke-miterlimit="10"/>
<path d="M355.15 211.32H353.9V212.57H355.15V211.32Z" fill="#4D4D4D" stroke="#4D4D4D" stroke-width="0.25" stroke-miterlimit="10"/>
<path d="M355.15 213.2H353.9V214.45H355.15V213.2Z" fill="#4D4D4D" stroke="#4D4D4D" stroke-width="0.25" stroke-miterlimit="10"/>
<path d="M358.02 213.63C358.92 213.63 359.65 212.9 359.65 212C359.65 211.1 358.92 210.37 358.02 210.37C357.12 210.37 356.39 211.1 356.39 212C356.39 212.9 357.12 213.63 358.02 213.63Z" fill="#4D4D4D" stroke="#4D4D4D" stroke-width="0.25" stroke-miterlimit="10"/>
<path d="M361.68 213.63C362.58 213.63 363.31 212.9 363.31 212C363.31 211.1 362.58 210.37 361.68 210.37C360.78 210.37 360.05 211.1 360.05 212C360.05 212.9 360.78 213.63 361.68 213.63Z" fill="#4D4D4D" stroke="#4D4D4D" stroke-width="0.25" stroke-miterlimit="10"/>
<path d="M327.83 214.77C327.94 214.77 328.03 214.681 328.03 214.57C328.03 214.46 327.94 214.37 327.83 214.37C327.719 214.37 327.63 214.46 327.63 214.57C327.63 214.681 327.719 214.77 327.83 214.77Z" fill="#4D4D4D" stroke="#4D4D4D" stroke-width="0.25" stroke-miterlimit="10"/>
<path d="M328.69 214.77C328.801 214.77 328.89 214.681 328.89 214.57C328.89 214.46 328.801 214.37 328.69 214.37C328.58 214.37 328.49 214.46 328.49 214.57C328.49 214.681 328.58 214.77 328.69 214.77Z" fill="#4D4D4D" stroke="#4D4D4D" stroke-width="0.25" stroke-miterlimit="10"/>
<path d="M329.55 214.77C329.661 214.77 329.75 214.681 329.75 214.57C329.75 214.46 329.661 214.37 329.55 214.37C329.44 214.37 329.35 214.46 329.35 214.57C329.35 214.681 329.44 214.77 329.55 214.77Z" fill="#4D4D4D" stroke="#4D4D4D" stroke-width="0.25" stroke-miterlimit="10"/>
<path d="M327.57 215.13H328.09" stroke="#4D4D4D" stroke-width="0.25" stroke-miterlimit="10"/>
<path d="M328.4 215.13H328.92" stroke="#4D4D4D" stroke-width="0.25" stroke-miterlimit="10"/>
<path d="M329.24 215.13H329.76" stroke="#4D4D4D" stroke-width="0.25" stroke-miterlimit="10"/>
<path d="M374.21 240.72C374.4 240.77 374.4 240.6 374.48 240.46C374.75 239.96 374.94 239.44 375.24 238.95C376.11 237.55 377.41 236.69 378.83 236.33L376.52 242.8C376.2 242.92 375.82 242.85 375.52 242.93C374.61 243.16 373.94 244.67 373.33 245.41C373.34 244.81 373.09 244.22 373.17 243.61C373.3 242.59 374.17 241.49 374.22 240.71L374.21 240.72Z" fill="#6CB453"/>
<path d="M374.12 239.57C373.75 240.62 373.21 241.61 372.96 242.7L372.27 240.54C372.12 240.3 372.02 239.9 371.72 239.88C371.76 239.36 371.93 238.84 371.94 238.31L372.74 235.08C373.24 236.59 373.93 237.95 374.12 239.57Z" fill="#6CB453"/>
<path d="M368.17 246.05C368.2 245.97 368.68 245.28 368.75 245.21C369.55 244.43 371.48 244.4 372.17 245.42C371.4 245.48 370.7 246.35 370.17 246.98C370.07 247.09 370.06 247.27 370.04 247.3C369.3 248.17 368.5 248.77 367.55 249.28C367.9 248.26 367.74 247.01 368.17 246.04V246.05Z" fill="#6CB453"/>
<path d="M369.59 240.3C369.59 240.3 369.07 240.85 369.02 240.93C368.6 241.57 368.49 243.1 368.62 243.85C367.47 241.96 366.52 239.85 366.31 237.48C367.42 238.45 368.77 238.92 369.59 240.3Z" fill="#3F863C"/>
<path d="M377.49 245.32C377.49 245.32 377.44 245.05 377.35 244.91C377.04 244.44 376.85 243.94 376.33 243.7L375.44 243.44C375.98 243.36 376.44 243.2 377 243.23C377.28 243.24 378.16 243.38 378.4 243.47C378.6 243.54 378.97 244.13 379.12 244.35C379.15 244.4 379.26 244.37 379.27 244.39C379.47 244.71 379.87 245.75 380.02 246.17C380.11 246.42 380.61 247.81 380.51 247.94C379.81 247.64 379.06 247.18 378.51 246.59C378.26 246.32 377.69 245.63 377.49 245.33V245.32Z" fill="#6CB453"/>
<path d="M371.72 240.51C371.72 240.51 372.05 240.97 371.99 241.03C371.81 241.02 371.65 241.03 371.48 241.11C370.98 241.35 369.73 243.38 369.41 244C369.32 244.18 369.17 245.08 368.99 244.61C368.81 244.17 368.77 244.26 368.71 244.16C368.71 244.15 368.63 243.88 368.62 243.85C368.49 243.1 368.61 241.57 369.02 240.93C369.07 240.85 369.56 240.31 369.59 240.3C369.69 240.26 370.52 240.28 370.7 240.3C370.83 240.31 371.66 240.47 371.72 240.51Z" fill="#6CB453"/>
<path d="M375.38 245.17C376.84 245.69 377.07 247.13 378.27 248.12C378.41 248.23 379.43 248.58 379.06 248.82C378.92 248.91 376.96 248.74 376.7 248.66C376.09 248.48 374.61 247.3 374.31 246.68C374.29 246.65 374.38 246.37 374.26 246.17L373.4 244.78C374.06 244.74 374.76 244.95 375.38 245.17Z" fill="#6CB453"/>
</g>
<defs>
<clipPath id="clip0_243_2318">
<rect width="365.78" height="200.59" fill="white" transform="translate(32 88)"/>
</clipPath>
</defs>
</svg>
